<?xml version="1.0" encoding="UTF-8"?>
<svg id="Laag_1" data-name="Laag 1" xmlns="http://www.w3.org/2000/svg" version="1.1" viewBox="0 0 473.36 444.26">
  <defs>
    <style>
      .cls-1 {
        fill: #f9741f;
      }

      .cls-1, .cls-2, .cls-3 {
        stroke-width: 0px;
      }

      .cls-2 {
        fill: #484848;
      }

      .cls-3 {
        fill: #fff;
      }
    </style>
  </defs>
  <g>
    <rect class="cls-3" x="33.48" y="71.95" width="0" height="353.42"/>
    <path class="cls-2" d="M33.48,432.87h0c4.05,0,7.5-3.44,7.5-7.5V115.52c0-14.27.62-28.69,0-42.95,0-.21,0-.42,0-.63,0-4.05-3.44-7.5-7.5-7.5h0c-4.05,0-7.5,3.44-7.5,7.5v309.85c0,14.27-.62,28.69,0,42.95,0,.21,0,.42,0,.63,0,9.65,15,9.67,15,0V86.32c0-4.47.53-9.31,0-13.75-.02-.2,0-.42,0-.63l-7.5,7.5h0l-7.5-7.5v339.05c0,4.47-.53,9.31,0,13.75.02.2,0,.42,0,.63l7.5-7.5h0c-9.65,0-9.67,15,0,15Z"/>
  </g>
  <g>
    <rect class="cls-3" x="33.48" y="425.37" width="353.42" height="0"/>
    <path class="cls-2" d="M25.98,425.37h0c0,4.05,3.44,7.5,7.5,7.5h309.85c14.27,0,28.69.62,42.95,0,.21,0,.42,0,.63,0,4.05,0,7.5-3.44,7.5-7.5h0c0-4.05-3.44-7.5-7.5-7.5H77.05c-14.27,0-28.69-.62-42.95,0-.21,0-.42,0-.63,0-9.65,0-9.67,15,0,15h339.05c4.47,0,9.31.53,13.75,0,.2-.02.42,0,.63,0l-7.5-7.5h0c2.5-2.5,5-5,7.5-7.5H47.85c-4.47,0-9.31-.53-13.75,0-.2.02-.42,0-.63,0l7.5,7.5h0c0-9.65-15-9.67-15,0Z"/>
  </g>
  <g>
    <circle class="cls-2" cx="136.7" cy="345.99" r="14.01"/>
    <path class="cls-2" d="M148.2,345.99c-.06,4.74-2.98,9.16-7.49,10.8s-9.92.25-13.03-3.62-3.28-9.05-.84-13.12,7.29-6.3,11.93-5.38c5.45,1.08,9.36,5.77,9.43,11.33.04,3.22,5.04,3.22,5,0-.09-6.95-4.37-13.03-10.85-15.5s-14.01-.33-18.31,4.92-5.12,13.06-1.52,19.05,10.59,8.97,17.41,7.71c7.69-1.43,13.17-8.48,13.27-16.18.04-3.22-4.96-3.22-5,0Z"/>
  </g>
  <g>
    <circle class="cls-2" cx="171.94" cy="273.93" r="14.01"/>
    <path class="cls-2" d="M183.45,273.93c-.06,4.74-2.98,9.16-7.49,10.8s-9.92.25-13.03-3.62-3.28-9.05-.84-13.12,7.29-6.3,11.93-5.38c5.45,1.08,9.36,5.77,9.43,11.33.04,3.22,5.04,3.22,5,0-.09-6.95-4.37-13.03-10.85-15.5s-14.01-.33-18.31,4.92-5.12,13.06-1.52,19.05,10.59,8.97,17.41,7.71c7.69-1.43,13.17-8.48,13.27-16.18.04-3.22-4.96-3.22-5,0Z"/>
  </g>
  <g>
    <circle class="cls-2" cx="281.94" cy="363.93" r="14.01"/>
    <path class="cls-2" d="M293.45,363.93c-.06,4.74-2.98,9.16-7.49,10.8s-9.92.25-13.03-3.62-3.28-9.05-.84-13.12,7.29-6.3,11.93-5.38c5.45,1.08,9.36,5.77,9.43,11.33.04,3.22,5.04,3.22,5,0-.09-6.95-4.37-13.03-10.85-15.5s-14.01-.33-18.31,4.92-5.12,13.06-1.52,19.05,10.59,8.97,17.41,7.71c7.69-1.43,13.17-8.48,13.27-16.18.04-3.22-4.96-3.22-5,0Z"/>
  </g>
  <g>
    <circle class="cls-2" cx="321.94" cy="103.93" r="14.01"/>
    <path class="cls-2" d="M333.45,103.93c-.06,4.74-2.98,9.16-7.49,10.8s-9.92.25-13.03-3.62-3.28-9.05-.84-13.12,7.29-6.3,11.93-5.38c5.45,1.08,9.36,5.77,9.43,11.33.04,3.22,5.04,3.22,5,0-.09-6.95-4.37-13.03-10.85-15.5s-14.01-.33-18.31,4.92-5.12,13.06-1.52,19.05,10.59,8.97,17.41,7.71c7.69-1.43,13.17-8.48,13.27-16.18.04-3.22-4.96-3.22-5,0Z"/>
  </g>
  <g>
    <circle class="cls-2" cx="231.94" cy="310.19" r="14.01"/>
    <path class="cls-2" d="M243.45,310.19c-.06,4.74-2.98,9.16-7.49,10.8s-9.92.25-13.03-3.62-3.28-9.05-.84-13.12,7.29-6.3,11.93-5.38c5.45,1.08,9.36,5.77,9.43,11.33.04,3.22,5.04,3.22,5,0-.09-6.95-4.37-13.03-10.85-15.5s-14.01-.33-18.31,4.92-5.12,13.06-1.52,19.05,10.59,8.97,17.41,7.71c7.69-1.43,13.17-8.48,13.27-16.18.04-3.22-4.96-3.22-5,0Z"/>
  </g>
  <g>
    <circle class="cls-2" cx="101.94" cy="280.19" r="14.01"/>
    <path class="cls-2" d="M113.45,280.19c-.06,4.74-2.98,9.16-7.49,10.8s-9.92.25-13.03-3.62-3.28-9.05-.84-13.12,7.29-6.3,11.93-5.38c5.45,1.08,9.36,5.77,9.43,11.33.04,3.22,5.04,3.22,5,0-.09-6.95-4.37-13.03-10.85-15.5s-14.01-.33-18.31,4.92-5.12,13.06-1.52,19.05,10.59,8.97,17.41,7.71c7.69-1.43,13.17-8.48,13.27-16.18.04-3.22-4.96-3.22-5,0Z"/>
  </g>
  <path class="cls-1" d="M377.36,104.21c0,12.17-3.95,23.41-10.6,32.52l33.56,33.58c3.31,3.31,3.31,8.69,0,12.01-3.31,3.31-8.69,3.31-12.01,0l-33.56-33.58c-9.12,6.68-20.36,10.6-32.52,10.6-30.46,0-55.14-24.68-55.14-55.14s24.68-55.14,55.14-55.14,55.14,24.68,55.14,55.14ZM322.23,142.38c21.08,0,38.17-17.09,38.17-38.17s-17.09-38.17-38.17-38.17-38.17,17.09-38.17,38.17,17.09,38.17,38.17,38.17Z"/>
</svg>