<?xml version="1.0" encoding="UTF-8"?>
<svg id="Laag_1" data-name="Laag 1" xmlns="http://www.w3.org/2000/svg" version="1.1" viewBox="0 0 473.4 444.3">
  <defs>
    <style>
      .cls-1 {
        fill: #484848;
      }

      .cls-1, .cls-2 {
        stroke-width: 0px;
      }

      .cls-2 {
        fill: #fff;
      }
    </style>
  </defs>
  <g>
    <rect class="cls-2" x="33.5" y="71.9" height="353.4"/>
    <path class="cls-1" d="M33.5,432.9h0c4,0,7.5-3.4,7.5-7.5V115.5c0-14.3.6-28.7,0-43v-.6c0-4.1-3.4-7.5-7.5-7.5h0c-4,0-7.5,3.4-7.5,7.5v309.9c0,14.3-.6,28.7,0,43v.6c0,9.6,15,9.7,15,0V86.3c0-4.5.5-9.3,0-13.8,0-.2,0-.4,0-.6l-7.5,7.5h0l-7.5-7.5v339c0,4.5-.5,9.3,0,13.8,0,.2,0,.4,0,.6l7.5-7.5h0c-9.6,0-9.7,15,0,15Z"/>
  </g>
  <g>
    <polygon class="cls-2" points="33.5 425.4 386.9 425.4 386.9 425.4 33.5 425.4"/>
    <path class="cls-1" d="M26,425.4h0c0,4,3.4,7.5,7.5,7.5h309.9c14.3,0,28.7.6,43,0h.6c4,0,7.5-3.4,7.5-7.5h0c0-4-3.4-7.5-7.5-7.5H77.1c-14.3,0-28.7-.6-43,0h-.6c-9.6,0-9.7,15,0,15h339c4.5,0,9.3.5,13.8,0,.2,0,.4,0,.6,0l-7.5-7.5h0l7.5-7.5H47.8c-4.5,0-9.3-.5-13.8,0-.2,0-.4,0-.6,0l7.5,7.5h0c0-9.6-15-9.7-15,0h0Z"/>
  </g>
  <g>
    <circle class="cls-1" cx="136.7" cy="346" r="14" transform="translate(-218.1 457.8) rotate(-85.9)"/>
    <path class="cls-1" d="M148.2,346c0,4.7-3,9.2-7.5,10.8s-9.9.2-13-3.6-3.3-9-.8-13.1,7.3-6.3,11.9-5.4c5.4,1.1,9.4,5.8,9.4,11.3,0,3.2,5,3.2,5,0,0-7-4.4-13-10.9-15.5s-14-.3-18.3,4.9-5.1,13.1-1.5,19,10.6,9,17.4,7.7c7.7-1.4,13.2-8.5,13.3-16.2,0-3.2-5-3.2-5,0h0Z"/>
  </g>
  <g>
    <circle class="cls-1" cx="171.9" cy="273.9" r="14"/>
    <path class="cls-1" d="M183.4,273.9c0,4.7-3,9.2-7.5,10.8s-9.9.2-13-3.6-3.3-9-.8-13.1,7.3-6.3,11.9-5.4c5.4,1.1,9.4,5.8,9.4,11.3,0,3.2,5,3.2,5,0,0-7-4.4-13-10.9-15.5s-14-.3-18.3,4.9-5.1,13.1-1.5,19,10.6,9,17.4,7.7c7.7-1.4,13.2-8.5,13.3-16.2,0-3.2-5-3.2-5,0h0Z"/>
  </g>
  <g>
    <circle class="cls-1" cx="281.9" cy="363.9" r="14"/>
    <path class="cls-1" d="M293.5,363.9c0,4.7-3,9.2-7.5,10.8s-9.9.2-13-3.6-3.3-9-.8-13.1,7.3-6.3,11.9-5.4c5.5,1.1,9.4,5.8,9.4,11.3,0,3.2,5,3.2,5,0,0-7-4.4-13-10.9-15.5s-14-.3-18.3,4.9-5.1,13.1-1.5,19,10.6,9,17.4,7.7c7.7-1.4,13.2-8.5,13.3-16.2,0-3.2-5-3.2-5,0h0Z"/>
  </g>
  <g>
    <circle class="cls-1" cx="321.9" cy="103.9" r="14"/>
    <path class="cls-1" d="M333.5,103.9c0,4.7-3,9.2-7.5,10.8s-9.9.2-13-3.6-3.3-9.1-.8-13.1,7.3-6.3,11.9-5.4c5.5,1.1,9.4,5.8,9.4,11.3,0,3.2,5,3.2,5,0,0-6.9-4.4-13-10.9-15.5s-14-.3-18.3,4.9-5.1,13.1-1.5,19.1,10.6,9,17.4,7.7c7.7-1.4,13.2-8.5,13.3-16.2,0-3.2-5-3.2-5,0h0Z"/>
  </g>
  <g>
    <circle class="cls-1" cx="231.9" cy="310.2" r="14"/>
    <path class="cls-1" d="M243.4,310.2c0,4.7-3,9.2-7.5,10.8s-9.9.2-13-3.6-3.3-9-.8-13.1,7.3-6.3,11.9-5.4c5.4,1.1,9.4,5.8,9.4,11.3,0,3.2,5,3.2,5,0,0-7-4.4-13-10.9-15.5s-14-.3-18.3,4.9-5.1,13.1-1.5,19,10.6,9,17.4,7.7c7.7-1.4,13.2-8.5,13.3-16.2,0-3.2-5-3.2-5,0h0Z"/>
  </g>
  <g>
    <circle class="cls-1" cx="101.9" cy="280.2" r="14"/>
    <path class="cls-1" d="M113.4,280.2c0,4.7-3,9.2-7.5,10.8s-9.9.2-13-3.6-3.3-9-.8-13.1,7.3-6.3,11.9-5.4c5.4,1.1,9.4,5.8,9.4,11.3,0,3.2,5,3.2,5,0,0-7-4.4-13-10.8-15.5s-14-.3-18.3,4.9-5.1,13.1-1.5,19,10.6,9,17.4,7.7c7.7-1.4,13.2-8.5,13.3-16.2,0-3.2-5-3.2-5,0h0Z"/>
  </g>
</svg>